<svg xmlns="http://www.w3.org/2000/svg" width="541.721" height="653.736" viewBox="0 0 541.721 653.736">
  <g id="Group_3" data-name="Group 3" transform="translate(-1180.779 -215.764)">
    <ellipse id="Ellipse_1" data-name="Ellipse 1" cx="86.5" cy="98.1" rx="86.5" ry="98.1" transform="translate(1363 559.9)" fill="#36334a"/>
    <path id="Path_10" data-name="Path 10" d="M794.675,253.824A141.135,141.135,0,0,1,728.6,265.27c5.813-4.146,9.542-10.8,11.045-17.781s.931-14.273-.622-21.242a3.468,3.468,0,0,1,.047-2.451,3.384,3.384,0,0,1,2.641-1.258c8.762-1.22,33.86-6.516,40.532.985,3.162,3.554,1.951,10.459,3.105,14.8C785.821,240.116,791.92,255.03,794.675,253.824Z" transform="translate(765.858 77.75)" fill="#fbbebe"/>
    <path id="Path_11" data-name="Path 11" d="M794.675,253.824A141.135,141.135,0,0,1,728.6,265.27c5.813-4.146,9.542-10.8,11.045-17.781s.931-14.273-.622-21.242a3.468,3.468,0,0,1,.047-2.451,3.384,3.384,0,0,1,2.641-1.258c8.762-1.22,33.86-6.516,40.532.985,3.162,3.554,1.951,10.459,3.105,14.8C785.821,240.116,791.92,255.03,794.675,253.824Z" transform="translate(765.858 77.75)" opacity="0.1"/>
    <path id="Path_12" data-name="Path 12" d="M721.642,402.75l-130,4s-115,112-20,146c0,0,117,19,145-3C716.642,549.75,751.642,411.75,721.642,402.75Zm-6,37-139,9s10-34,50-34,85-9,89,12S715.642,439.75,715.642,439.75Z" transform="translate(765.858 77.75)" fill="#3f3d56"/>
    <path id="Path_13" data-name="Path 13" d="M619.156,384.809c-6.485-.992-13.534-1.565-19.214,1.718a30.6,30.6,0,0,0-5.235,4.131q-3.425,3.146-6.8,6.347c-1.645,1.561-3.365,3.281-3.787,5.509-.868,4.584,4.427,8.275,9.089,8.1s8.844-2.741,13.247-4.284c8.867-3.108,41.476,2.2,43.257-7.343C651.979,386.841,626.367,385.956,619.156,384.809Z" transform="translate(765.858 77.75)" fill="#fbbebe"/>
    <path id="Path_14" data-name="Path 14" d="M679.927,377.142a73.564,73.564,0,0,1-27.188,7.72,11.462,11.462,0,0,0-4.3.916,4.346,4.346,0,0,0-1.793,2.181,64.9,64.9,0,0,0-6.078,22.186,1.98,1.98,0,0,0,.7,2.026,6.241,6.241,0,0,0,2.939.66q23.337,1.481,46.828,1.591a4.883,4.883,0,0,0,2.039-.277,1.909,1.909,0,0,0,.937-1.16A70.955,70.955,0,0,0,699.1,384.2C698.69,372.613,695.295,368.984,679.927,377.142Z" transform="translate(765.858 77.75)" fill="#d7e5f2"/>
    <path id="Path_15" data-name="Path 15" d="M679.927,377.142a73.564,73.564,0,0,1-27.188,7.72,11.462,11.462,0,0,0-4.3.916,4.346,4.346,0,0,0-1.793,2.181,64.9,64.9,0,0,0-6.078,22.186,1.98,1.98,0,0,0,.7,2.026,6.241,6.241,0,0,0,2.939.66q23.337,1.481,46.828,1.591a4.883,4.883,0,0,0,2.039-.277,1.909,1.909,0,0,0,.937-1.16A70.955,70.955,0,0,0,699.1,384.2C698.69,372.613,695.295,368.984,679.927,377.142Z" transform="translate(765.858 77.75)" opacity="0.1"/>
    <path id="Path_16" data-name="Path 16" d="M854.642,481.75l-171-6,40-169s160-12,156,29S854.642,481.75,854.642,481.75Z" transform="translate(765.858 77.75)" fill="#36334a"/>
    <path id="Path_17" data-name="Path 17" d="M689.561,562.536S586.642,580.75,549.642,526.75s140-25,140-25l15,41Z" transform="translate(765.858 77.75)" fill="#36334a"/>
    <circle id="Ellipse_2" data-name="Ellipse 2" cx="47" cy="47" r="47" transform="translate(1377.5 775.5)" fill="#36334a"/>
    <ellipse id="Ellipse_3" data-name="Ellipse 3" cx="29.5" cy="34" rx="29.5" ry="34" transform="translate(1399.5 788.5)" fill="#3f3d56"/>
    <path id="Path_19" data-name="Path 19" d="M954.5,328.452h0a9.353,9.353,0,0,1-12.688,6.1l-45.241-19.343,8.207-18.077,44.588,20.308A9.353,9.353,0,0,1,954.5,328.452Z" transform="translate(765.858 77.75)" fill="#36334a"/>
    <path id="Path_20" data-name="Path 20" d="M679.642,556.75s-72-8-92,61-18,122-35,118-53-18-53-18l3,21s63,32,73-2,16-159,73-156,67-3,67-3Z" transform="translate(765.858 77.75)" fill="#3f3d56"/>
    <path id="Path_21" data-name="Path 21" d="M542.642,523.75s-56,7-78,48-33,115-33,115h21s12-147,75-139Z" transform="translate(765.858 77.75)" fill="#3f3d56"/>
    <path id="Path_22" data-name="Path 22" d="M504.642,752.75l-89-55s-5-20,52-28c0,0,107.767,37.69,97.384,51.845S519.642,757.75,504.642,752.75Z" transform="translate(765.858 77.75)" fill="#36334a"/>
    <path id="Path_23" data-name="Path 23" d="M448.5,466V583h13V464Z" transform="translate(960 185.5)" fill="#3f3d56"/>
    <path id="Path_24" data-name="Path 24" d="M661.642,645.75s25,98,9,112c0,0-21-62-37-54l5-58Z" transform="translate(765.858 77.75)" fill="#36334a"/>
    <circle id="Ellipse_4" data-name="Ellipse 4" cx="39" cy="39" r="39" transform="translate(1485.5 237.5)" fill="#fbbebe"/>
    <path id="Path_25" data-name="Path 25" d="M751.266,257.86c15.9,2.7,29.65-15.789,45.571-13.189a30.583,30.583,0,0,1,9.793,3.853,97.155,97.155,0,0,1,46.828,62.719c1.8,8.021,2.495,16.718-.893,24.208-1.8,3.981-4.65,7.381-7.5,10.694-10.593,12.32-22.219,24.6-37.334,30.558-1.476,5.114-.059,10.651,1.712,15.67,7.392,20.958-4.362,43.545-4.962,65.761-.1,3.8.011,7.964-2.365,10.931-2.638,3.294-7.346,3.879-11.56,4.116-38.615,2.176-77.177-3.748-115.4-9.654a5.8,5.8,0,0,1-2.8-.949c-1.257-1-1.447-2.8-1.715-4.383-1.418-8.394,6.036-15.2,2.5-22.945-6.076-13.314,7.177-27.874,11-42s5.328-16.611,8-31c1-5.38-1.879-21.6-1-27,2.87-17.642.7-37.737,10-53,5.588-9.171,4.138-16.3,14.109-20.289C725.772,257.754,740.01,259.17,751.266,257.86Z" transform="translate(765.858 77.75)" fill="#d7e5f2"/>
    <path id="Path_26" data-name="Path 26" d="M575.136,490.442c-11.643,2.245-24,4.387-32.964,12.153-5.472,4.743-9.15,11.173-12.723,17.472L493,584.333c-11.117,19.6-22.239,39.211-32.318,59.364a10.7,10.7,0,0,0-1.507,4.828c.04,2.405,1.657,4.473,3.312,6.218a53.16,53.16,0,0,0,45,15.824c2.507-12.982,14.847-21.562,20.9-33.32,3.323-6.461,4.659-13.725,6.8-20.666,8-25.89,27-46.679,45.438-66.535,8.716-9.384,17.637-18.931,28.867-25.088,13.174-7.224,28.461-9.223,43.183-12.223s29.966-7.549,40.384-18.376a43.36,43.36,0,0,0,11.546-35.319c-9.432-.66-19.928-1.886-29.026,1.147-10.567,3.523-20.786,8.338-31.369,11.936a521.161,521.161,0,0,1-69.077,18.318Z" transform="translate(765.858 77.75)" fill="#696880"/>
    <path id="Path_27" data-name="Path 27" d="M575.136,490.442c-11.643,2.245-24,4.387-32.964,12.153-5.472,4.743-9.15,11.173-12.723,17.472L493,584.333c-11.117,19.6-22.239,39.211-32.318,59.364a10.7,10.7,0,0,0-1.507,4.828c.04,2.405,1.657,4.473,3.312,6.218a53.16,53.16,0,0,0,45,15.824c2.507-12.982,14.847-21.562,20.9-33.32,3.323-6.461,4.659-13.725,6.8-20.666,8-25.89,27-46.679,45.438-66.535,8.716-9.384,17.637-18.931,28.867-25.088,13.174-7.224,28.461-9.223,43.183-12.223s29.966-7.549,40.384-18.376a43.36,43.36,0,0,0,11.546-35.319c-9.432-.66-19.928-1.886-29.026,1.147-10.567,3.523-20.786,8.338-31.369,11.936a521.161,521.161,0,0,1-69.077,18.318Z" transform="translate(765.858 77.75)" opacity="0.1"/>
    <path id="Path_28" data-name="Path 28" d="M417.988,694.229a8.185,8.185,0,0,0-2.871,3.708c-1.324,4.51,4.321,7.688,8.837,8.987,10.148,2.92,20.975,5.847,31.1,2.837,6.207-1.846,11.609-5.8,17.776-7.776,9.152-2.932,19.065-1.267,28.526.423a61.741,61.741,0,0,0-4.09-35.242c-3.035-7-15.186-10.41-22.42-10.717-7.908-.336-10.654,5.5-15.219,10.869C448.508,680.4,430.8,683.43,417.988,694.229Z" transform="translate(765.858 77.75)" fill="#3f3d56"/>
    <path id="Path_29" data-name="Path 29" d="M582.566,509.6c-5.595,2.225-11.332,4.542-15.721,8.664-4.634,4.352-7.346,10.323-9.819,16.179a451.872,451.872,0,0,0-18.631,53.143c-2.576,9.138-4.873,18.381-8.344,27.218-6.928,17.636-18.683,34.527-17.579,53.443a12.673,12.673,0,0,0,1.789,6.528c1.569,2.277,4.239,3.486,6.775,4.587l13.3,5.774c7.135,3.1,15.842,6.077,22.217,1.619,4.266-2.983,5.97-8.394,7.257-13.438,4.648-18.217,7.519-37.138,15.847-53.994,9.412-19.051,25.326-34.446,33.747-53.955,1.192-2.761,2.322-5.723,4.665-7.608,1.936-1.557,4.445-2.163,6.867-2.715,49.941-11.372,101.009-17.592,150.551-30.595,7.043-1.849,14.412-4.043,19.436-9.314,6.967-7.308,7.588-18.415,7.811-28.51.14-6.324.11-13.2-3.743-18.214-4.346-5.658-12.138-7.152-19.234-7.9-27.214-2.863-52.314,1.647-79.116,4.95-24.523,3.022-49.223,16.864-72.1,25.907Q605.542,500.46,582.566,509.6Z" transform="translate(765.858 77.75)" fill="#696880"/>
    <path id="Path_30" data-name="Path 30" d="M521.032,690.381c-3.741,8.881-7.776,18.157-15.362,24.1-3.169,2.482-7.268,4.968-7.394,8.991-.134,4.257,4.337,7.067,8.343,8.512,10.2,3.681,21.816,4.468,31.772.161,6.809-2.946,12.425-8.038,17.9-13.039,1.651-1.507,3.359-3.1,4.133-5.194a13.431,13.431,0,0,0,.465-5.453,139.761,139.761,0,0,0-5.9-32.74c-.253-.836-21.77-3.519-23.678-3.02C525.3,674.267,523.349,684.88,521.032,690.381Z" transform="translate(765.858 77.75)" fill="#3f3d56"/>
    <path id="Path_31" data-name="Path 31" d="M855.642,432.75l-130,4s-115,112-20,146c0,0,117,19,145-3C850.642,579.75,885.642,441.75,855.642,432.75Zm-6,37-139,9s10-34,50-34,85-9,89,12S849.642,469.75,849.642,469.75Z" transform="translate(765.858 77.75)" fill="#3f3d56"/>
    <ellipse id="Ellipse_5" data-name="Ellipse 5" cx="130.5" cy="148" rx="130.5" ry="148" transform="translate(1461.5 573.5)" fill="#36334a"/>
    <ellipse id="Ellipse_6" data-name="Ellipse 6" cx="98.5" cy="110" rx="98.5" ry="110" transform="translate(1499.5 611.5)" fill="#3f3d56"/>
    <path id="Path_32" data-name="Path 32" d="M857.642,642.25a29.285,29.285,0,0,0-.571-5.715l73.571-36.786-5-11-74.319,36.206a15.514,15.514,0,0,0-2.469-2.063l.057.012L870.642,514.75l-19.222-.437L838.642,620.75l1.225.257a11.993,11.993,0,0,0-2.866.979L772.726,556.01l-9.084,12.74L829.68,629.5a26.563,26.563,0,0,0-2.924,10.24L733.642,677.75l-2,16,97.06-40.82a21.213,21.213,0,0,0,3.794,6.131L802.642,760.75h11L838.7,663.2a11.418,11.418,0,0,0,3.441.55,11.918,11.918,0,0,0,6.356-1.905l52.144,68.9,16-11-61.1-66.736A27.962,27.962,0,0,0,857.642,642.25Z" transform="translate(765.858 77.75)" fill="#36334a"/>
    <path id="Path_33" data-name="Path 33" d="M713.319,174.059c1.762-4.424,7.443-6.254,9.3-10.637,2-4.714-1.136-10.712,1.587-15.049,2.744-4.37,9.138-3.858,14.228-3.014,6.009,1,12.4,1.667,18.005-.718,2.493-1.061,4.705-2.68,7.12-3.909a25.149,25.149,0,0,1,12.41-2.7,5.631,5.631,0,0,1,2.785.664,5.217,5.217,0,0,1,1.806,2.332c1.753,3.8,2,8.538,5.178,11.262,1.525,1.308,3.5,1.925,5.329,2.763a23.076,23.076,0,0,1,12.937,23.022,46.81,46.81,0,0,0-.787,6.594c.124,4.863,3.3,9.72,1.679,14.305-1.207,3.408-4.737,5.425-8.2,6.476a4.7,4.7,0,0,1-3.093.157c-1.775-.719-2.129-3-2.7-4.828A11.845,11.845,0,0,0,779.44,192.7c-4.034.171-8.115,2.437-11.921,1.089-1.87-.662-3.334-2.108-4.829-3.413-3.44-3-7.51-5.5-12.031-6.138s-9.529.886-12.192,4.595c-1.075,1.5-1.726,3.262-2.752,4.794C726.5,207.391,709.514,183.613,713.319,174.059Z" transform="translate(765.858 77.75)" fill="#36334a"/>
    <path id="Path_34" data-name="Path 34" d="M734.1,411.737a10.611,10.611,0,0,0-9.282,3.456c-8.751,7.972-18.025,16.959-19.611,28.69a4.833,4.833,0,0,0,.363,3.176c.843,1.379,2.7,1.685,4.311,1.712a28.693,28.693,0,0,0,21.688-9.578c1.5-1.7,2.878-3.652,4.936-4.611a12.869,12.869,0,0,1,5.894-.731c5.49.18,18.025,2.99,22.811.267,5.033-2.863,3.649-11.84,1.3-16.168C760.923,407.661,743.606,411.634,734.1,411.737Z" transform="translate(765.858 77.75)" fill="#fbbebe"/>
    <path id="Path_35" data-name="Path 35" d="M856.24,325.34c3.363,10.817,1.393,23,6.157,33.277,3.162,6.821,9.109,12.32,10.95,19.61,1.74,6.889-.591,14.312-4.68,20.122s-9.782,10.272-15.492,14.5c-6.252,4.63-12.745,9.149-20.111,11.652-7.348,2.5-15.221,2.875-22.974,3.23l-51.383,2.356-9.463-28.371,33.48-13.114c3.351-1.313,6.765-2.64,10.354-2.905,6.2-.458,13.755,1.816,17.734-2.956a12.923,12.923,0,0,0,2.339-5.941c3.246-16.668.421-34.3,5.419-50.53,2.474-8.032,9.612-24.145,19.346-25.562C848.234,299.2,853.907,317.834,856.24,325.34Z" transform="translate(765.858 77.75)" fill="#d7e5f2"/>
  </g>
</svg>
